# xmcd
#
# Track frame offsets:
#	150
#	21750
#	39825
#	61725
#	84225
#	107850
#
# Disc length: 1808 seconds
#
# Revision: 1
# Processed by: cddbd v1.5.1PL0 Copyright (c) Steve Scherf et al.
# Submitted via: CDex 1.50Beta5
#
DISCID=3a070e06
DTITLE=Various Artist - 無限のリヴァイアス 「あしたから」
DYEAR=1900
DGENRE=Anime
TTITLE0=Sacred Sacrifice
TTITLE1=がんばれ
TTITLE2=ホントの笑顔で
TTITLE3=自分の自由は自分で決めろ
TTITLE4=masquerade
TTITLE5=独り立つ、私
EXTD=
EXTT0=
EXTT1=
EXTT2=
EXTT3=
EXTT4=
EXTT5=
PLAYORDER=
